<?xml version="1.0" encoding="utf-8"?>
<!-- Generator: Adobe Illustrator 22.0.0, SVG Export Plug-In . SVG Version: 6.00 Build 0)  -->
<svg version="1.1" id="Слой_1" xmlns="http://www.w3.org/2000/svg" xmlns:xlink="http://www.w3.org/1999/xlink" x="0px" y="0px"
	 viewBox="0 0 633.8 566.9" style="enable-background:new 0 0 633.8 566.9;" xml:space="preserve">
<style type="text/css">
	.st0{fill:#C5DCE8;}
	.st1{fill:#386D84;}
	.st2{fill:url(#SVGID_1_);}
	.st3{fill:url(#SVGID_2_);}
	.st4{fill:#FFFFFF;}
	.st5{fill:#1D4756;}
	.st6{fill:#ACCEDD;}
</style>
<g>
	<g>
		<path class="st0" d="M435.7,176.3H185.5c-8,0-14.6-6.6-14.6-14.6V14.6c0-8,6.6-14.6,14.6-14.6h250.2c8,0,14.6,6.6,14.6,14.6v147.2
			C450.3,169.7,443.7,176.3,435.7,176.3z"/>
		<path class="st1" d="M493.1,151.7h-365c-2.4,0-4.4,2-4.4,4.4v8.7c0,2.4,2,4.4,4.4,4.4h365c2.4,0,4.4-2,4.4-4.4v-8.7
			C497.5,153.7,495.5,151.7,493.1,151.7z"/>
		<g>
			<linearGradient id="SVGID_1_" gradientUnits="userSpaceOnUse" x1="310.6271" y1="421.5" x2="310.6271" y2="344.4735">
				<stop  offset="0" style="stop-color:#A2DBEF"/>
				<stop  offset="0.8051" style="stop-color:#569AE2"/>
			</linearGradient>
			<path class="st2" d="M481.6,421.5H139.7c-19.3,0-35.1-15.8-35.1-35.1v-6.8c0-19.3,15.8-35.1,35.1-35.1h341.9
				c19.3,0,35.1,15.8,35.1,35.1v6.8C516.7,405.7,500.9,421.5,481.6,421.5z"/>
		</g>
		<g>
			<linearGradient id="SVGID_2_" gradientUnits="userSpaceOnUse" x1="310.6271" y1="176.5" x2="310.6271" y2="367.6743">
				<stop  offset="0" style="stop-color:#7CC7E2"/>
				<stop  offset="1" style="stop-color:#42728D"/>
			</linearGradient>
			<path class="st3" d="M496.7,367.7H124.6c-6.1,0-11.1-5-11.1-11.1l48.7-168.9c0-6.1,5-11.1,11.1-11.1h279.3
				c6.1,0,11.1,5,11.1,11.1l44.2,168.9C507.8,362.7,502.8,367.7,496.7,367.7z"/>
		</g>
		<path class="st1" d="M444.9,339.5H176.3c-4.4,0-8-3.6-8-8l35.1-121.9c0-4.4,3.6-8,8-8H413c4.4,0,8,3.6,8,8L453,331.5
			C453,335.9,449.4,339.5,444.9,339.5z"/>
		<path class="st1" d="M446.5,144.1H174.8c-9,0-16.4,7.4-16.4,16.4v0c0,9,7.4,16.4,16.4,16.4h271.7c9,0,16.4-7.4,16.4-16.4v0
			C462.9,151.4,455.5,144.1,446.5,144.1z"/>
		<g>
			<path class="st1" d="M129.2,184.5L129.2,184.5c-4.8,0-8.7-3.9-8.7-8.7v-30.6c0-4.8,3.9-8.7,8.7-8.7h0c4.8,0,8.7,3.9,8.7,8.7v30.6
				C138,180.6,134,184.5,129.2,184.5z"/>
			<path class="st1" d="M492,184.5L492,184.5c-4.8,0-8.7-3.9-8.7-8.7v-30.6c0-4.8,3.9-8.7,8.7-8.7h0c4.8,0,8.7,3.9,8.7,8.7v30.6
				C500.8,180.6,496.8,184.5,492,184.5z"/>
		</g>
		<g>
			<g>
				<g>
					<ellipse class="st4" cx="236.5" cy="221.4" rx="17.9" ry="7.9"/>
				</g>
				<g>
					<ellipse class="st4" cx="283.8" cy="221.4" rx="17.9" ry="7.9"/>
				</g>
				<g>
					<ellipse class="st4" cx="331.1" cy="221.4" rx="17.9" ry="7.9"/>
				</g>
				<g>
					<ellipse class="st4" cx="378.4" cy="221.4" rx="17.9" ry="7.9"/>
				</g>
			</g>
			<g>
				<g>
					<ellipse class="st4" cx="247" cy="243.5" rx="17.9" ry="7.9"/>
				</g>
				<g>
					<ellipse class="st4" cx="294.3" cy="243.5" rx="17.9" ry="7.9"/>
				</g>
				<g>
					<ellipse class="st4" cx="341.6" cy="243.5" rx="17.9" ry="7.9"/>
				</g>
				<g>
					<ellipse class="st4" cx="388.9" cy="243.5" rx="17.9" ry="7.9"/>
				</g>
			</g>
			<g>
				<g>
					<ellipse class="st4" cx="229.2" cy="265.5" rx="17.9" ry="7.9"/>
				</g>
				<g>
					<ellipse class="st4" cx="276.5" cy="265.5" rx="17.9" ry="7.9"/>
				</g>
				<g>
					<ellipse class="st4" cx="323.8" cy="265.5" rx="17.9" ry="7.9"/>
				</g>
				<g>
					<ellipse class="st4" cx="371.1" cy="265.5" rx="17.9" ry="7.9"/>
				</g>
			</g>
			<g>
				<g>
					<ellipse class="st4" cx="250.2" cy="287.6" rx="17.9" ry="7.9"/>
				</g>
				<g>
					<ellipse class="st4" cx="297.5" cy="287.6" rx="17.9" ry="7.9"/>
				</g>
				<g>
					<ellipse class="st4" cx="344.8" cy="287.6" rx="17.9" ry="7.9"/>
				</g>
				<g>
					<ellipse class="st4" cx="392.1" cy="287.6" rx="17.9" ry="7.9"/>
				</g>
			</g>
		</g>
		<path class="st4" d="M392.8,323.9H228.5c-4.6,0-8.4-3.8-8.4-8.4l0,0c0-4.6,3.8-8.4,8.4-8.4h164.3c4.6,0,8.4,3.8,8.4,8.4l0,0
			C401.1,320.2,397.4,323.9,392.8,323.9z"/>
		<path class="st1" d="M435.7,0H185.5c-8,0-14.6,6.6-14.6,14.6V27c0,0,0,0,0.1,0h279.3V14.6C450.3,6.6,443.7,0,435.7,0z"/>
		<g>
			<path class="st4" d="M388.8,19H184c-0.9,0-1.6-0.7-1.6-1.6V9.6c0-0.9,0.7-1.6,1.6-1.6h204.9c0.9,0,1.6,0.7,1.6,1.6v7.8
				C390.4,18.3,389.7,19,388.8,19z"/>
			<g>
				<circle class="st4" cx="405.4" cy="13.5" r="5.5"/>
				<circle class="st4" cx="419.4" cy="13.5" r="5.5"/>
				<circle class="st4" cx="433.4" cy="13.5" r="5.5"/>
			</g>
		</g>
	</g>
	<g>
		<path class="st5" d="M64.3,537.1H58v-43.6H6.2v43.6H0v-88.7h6.2v39.4H58v-39.4h6.3V537.1z"/>
		<path class="st5" d="M114.5,538.3c-9.6,0-17.1-3-22.4-8.9c-5.4-5.9-8-14.2-8-24.8c0-10.5,2.6-18.9,7.8-25.3
			c5.2-6.3,12.2-9.5,20.9-9.5c7.8,0,13.9,2.7,18.4,8.1c4.5,5.4,6.7,12.8,6.7,22.1v4.9H90.3c0.1,9.1,2.2,16,6.3,20.8
			c4.1,4.8,10.1,7.2,17.8,7.2c3.8,0,7.1-0.3,9.9-0.8c2.9-0.5,6.5-1.7,10.8-3.4v5.5c-3.7,1.6-7.2,2.7-10.3,3.3
			S118.3,538.3,114.5,538.3z M112.7,475.2c-6.4,0-11.4,2.1-15.3,6.3c-3.8,4.2-6.1,10.2-6.7,18.1h40.8c0-7.6-1.7-13.6-5-17.9
			C123.2,477.3,118.6,475.2,112.7,475.2z"/>
		<path class="st5" d="M238.5,537.1v-43.3c0-6.4-1.3-11.1-3.8-14.1c-2.5-3-6.4-4.4-11.5-4.4c-6.8,0-11.8,1.9-15,5.6
			c-3.2,3.7-4.9,9.6-4.9,17.5v38.6h-6.1V492c0-11.1-5.1-16.7-15.3-16.7c-6.9,0-12,2-15.1,6s-4.7,10.5-4.7,19.3v36.4h-6v-66h5l1.3,9
			h0.4c1.8-3.3,4.4-5.8,7.8-7.6c3.4-1.8,7.1-2.7,11.1-2.7c10.4,0,17.1,3.9,20,11.7h0.2c2.1-3.8,5-6.7,8.6-8.7c3.6-2,7.7-3,12.3-3
			c7.2,0,12.6,1.9,16.2,5.8c3.6,3.8,5.4,10,5.4,18.3v43.1H238.5z"/>
		<path class="st5" d="M264.9,452.8c0-3.9,1.3-5.8,3.8-5.8c1.3,0,2.2,0.5,2.9,1.5c0.7,1,1.1,2.4,1.1,4.3c0,1.8-0.4,3.3-1.1,4.3
			c-0.7,1.1-1.7,1.6-2.9,1.6C266.2,458.7,264.9,456.7,264.9,452.8z M271.8,537.1h-6v-66h6V537.1z"/>
		<path class="st5" d="M339.8,537.1v-42.8c0-6.6-1.4-11.5-4.2-14.5c-2.8-3-7.1-4.5-13-4.5c-7.9,0-13.7,2-17.3,6
			c-3.7,4-5.5,10.4-5.5,19.4v36.4h-6v-66h5.1l1.2,9h0.4c4.3-6.9,11.9-10.3,22.9-10.3c15,0,22.4,8,22.4,24.1v43.1H339.8z"/>
		<path class="st5" d="M418.6,471.1v4.2l-13.7,0.8c3.6,4.5,5.5,9.5,5.5,14.9c0,6.4-2.1,11.5-6.3,15.4s-9.9,5.9-17,5.9
			c-3,0-5.1-0.1-6.3-0.4c-2.4,1.3-4.2,2.7-5.5,4.4c-1.3,1.7-1.9,3.5-1.9,5.4c0,2.1,0.8,3.6,2.4,4.6c1.6,1,4.3,1.5,8,1.5h11.5
			c7.2,0,12.6,1.4,16.4,4.3c3.8,2.9,5.7,7.2,5.7,12.8c0,7-2.8,12.3-8.5,16.1c-5.6,3.8-13.7,5.7-24.1,5.7c-8.3,0-14.7-1.6-19.3-4.8
			c-4.5-3.2-6.8-7.6-6.8-13.3c0-4.5,1.4-8.3,4.2-11.3c2.8-3,6.6-5,11.4-6.1c-2-0.8-3.6-2.1-4.8-3.6c-1.2-1.6-1.8-3.3-1.8-5.4
			c0-4.4,2.8-8.3,8.4-11.6c-3.8-1.6-6.8-4.1-9-7.4c-2.1-3.4-3.2-7.3-3.2-11.6c0-6.6,2.1-11.9,6.3-15.9c4.2-4,9.8-6,17-6
			c4.3,0,7.7,0.4,10.1,1.3H418.6z M365.2,548.2c0,9.1,6.7,13.6,20.2,13.6c17.3,0,26-5.5,26-16.6c0-4-1.4-6.8-4.1-8.6
			s-7.1-2.7-13.2-2.7h-10.8C371.3,534,365.2,538.7,365.2,548.2z M370.2,491.7c0,5.1,1.5,9.1,4.6,11.9s7.2,4.2,12.4,4.2
			c5.5,0,9.7-1.4,12.7-4.2c2.9-2.8,4.4-6.8,4.4-12.1c0-5.6-1.5-9.8-4.5-12.7c-3-2.8-7.2-4.2-12.7-4.2c-5.3,0-9.4,1.5-12.4,4.5
			C371.7,482.1,370.2,486.3,370.2,491.7z"/>
		<path class="st5" d="M484.9,537.1L470.4,493c-0.9-3-2.1-7.4-3.6-13.2h-0.4l-1.3,4.5l-2.7,8.8l-14.7,44h-5.9l-18.9-66h6.4
			l10.6,38.2c2.5,9.5,4.1,16.4,4.9,20.9h0.4c2.4-9.5,4.1-15.8,5.2-18.9l13.6-40.2h5.5l12.9,40.1c2.9,9.5,4.7,15.8,5.3,18.9h0.4
			c0.3-2.6,1.9-9.7,4.9-21.1l10.1-37.9h6.1l-17.9,66H484.9z"/>
		<path class="st5" d="M562,537.1l-1.5-10.4H560c-3.3,4.2-6.7,7.3-10.2,9c-3.5,1.8-7.6,2.6-12.4,2.6c-6.5,0-11.5-1.7-15.1-5
			c-3.6-3.3-5.4-7.9-5.4-13.8c0-6.4,2.7-11.4,8-15c5.4-3.6,13.1-5.4,23.3-5.6l12.6-0.4v-4.4c0-6.3-1.3-11-3.8-14.2
			c-2.5-3.2-6.7-4.8-12.3-4.8c-6.1,0-12.4,1.7-19,5.1l-2.2-5.2c7.2-3.4,14.4-5.1,21.5-5.1c7.2,0,12.7,1.9,16.2,5.6
			c3.6,3.8,5.4,9.6,5.4,17.6v43.9H562z M537.8,532.8c7,0,12.6-2,16.7-6c4.1-4,6.1-9.6,6.1-16.8v-6.5L549,504
			c-9.3,0.4-15.9,1.9-19.8,4.3c-3.9,2.4-5.9,6.3-5.9,11.4c0,4.1,1.3,7.3,3.8,9.6C529.6,531.7,533.2,532.8,537.8,532.8z"/>
		<path class="st5" d="M576.8,471.1h6.2l14,37c4.2,11.4,6.9,19,8.1,23h0.4c1.7-5.2,4.5-13,8.3-23.4l14-36.6h6.2l-29.5,76.6
			c-2.4,6.2-4.4,10.4-6,12.6c-1.6,2.2-3.5,3.8-5.7,4.9s-4.8,1.6-7.9,1.6c-2.3,0-4.9-0.4-7.7-1.3v-5.2c2.3,0.6,4.9,1,7.6,1
			c2.1,0,3.9-0.5,5.5-1.5c1.6-1,3-2.5,4.3-4.5c1.3-2,2.8-5.3,4.4-9.7c1.7-4.4,2.8-7.3,3.2-8.6L576.8,471.1z"/>
	</g>
	<g>
		<rect x="194.3" y="39.5" class="st6" width="234" height="26"/>
		<rect x="194.3" y="105.5" class="st6" width="234" height="26"/>
		<rect x="194.3" y="72.5" class="st6" width="151.1" height="26"/>
		<rect x="352.8" y="72.5" class="st6" width="75.6" height="26"/>
	</g>
</g>
</svg>
